<svg xmlns="http://www.w3.org/2000/svg" width="400" height="400" viewBox="0 0 400 400" role="img" aria-label="Fenice — grafismo flor da vida">
  <defs><clipPath id="fcA"><circle cx="200" cy="200" r="182.00"></circle></clipPath></defs>
  <g clip-path="url(#fcA)"><circle cx="40.00" cy="200.00" r="40" fill="none" stroke="#CC7A4D" stroke-width="1.4"></circle><circle cx="60.00" cy="234.64" r="40" fill="none" stroke="#CC7A4D" stroke-width="1.4"></circle><circle cx="80.00" cy="269.28" r="40" fill="none" stroke="#CC7A4D" stroke-width="1.4"></circle><circle cx="100.00" cy="303.92" r="40" fill="none" stroke="#CC7A4D" stroke-width="1.4"></circle><circle cx="120.00" cy="338.56" r="40" fill="none" stroke="#CC7A4D" stroke-width="1.4"></circle><circle cx="60.00" cy="165.36" r="40" fill="none" stroke="#CC7A4D" stroke-width="1.4"></circle><circle cx="80.00" cy="200.00" r="40" fill="none" stroke="#CC7A4D" stroke-width="1.4"></circle><circle cx="100.00" cy="234.64" r="40" fill="none" stroke="#CC7A4D" stroke-width="1.4"></circle><circle cx="120.00" cy="269.28" r="40" fill="none" stroke="#CC7A4D" stroke-width="1.4"></circle><circle cx="140.00" cy="303.92" r="40" fill="none" stroke="#CC7A4D" stroke-width="1.4"></circle><circle cx="160.00" cy="338.56" r="40" fill="none" stroke="#CC7A4D" stroke-width="1.4"></circle><circle cx="80.00" cy="130.72" r="40" fill="none" stroke="#CC7A4D" stroke-width="1.4"></circle><circle cx="100.00" cy="165.36" r="40" fill="none" stroke="#CC7A4D" stroke-width="1.4"></circle><circle cx="120.00" cy="200.00" r="40" fill="none" stroke="#CC7A4D" stroke-width="1.4"></circle><circle cx="140.00" cy="234.64" r="40" fill="none" stroke="#CC7A4D" stroke-width="1.4"></circle><circle cx="160.00" cy="269.28" r="40" fill="none" stroke="#CC7A4D" stroke-width="1.4"></circle><circle cx="180.00" cy="303.92" r="40" fill="none" stroke="#CC7A4D" stroke-width="1.4"></circle><circle cx="200.00" cy="338.56" r="40" fill="none" stroke="#CC7A4D" stroke-width="1.4"></circle><circle cx="100.00" cy="96.08" r="40" fill="none" stroke="#CC7A4D" stroke-width="1.4"></circle><circle cx="120.00" cy="130.72" r="40" fill="none" stroke="#CC7A4D" stroke-width="1.4"></circle><circle cx="140.00" cy="165.36" r="40" fill="none" stroke="#CC7A4D" stroke-width="1.4"></circle><circle cx="160.00" cy="200.00" r="40" fill="none" stroke="#CC7A4D" stroke-width="1.4"></circle><circle cx="180.00" cy="234.64" r="40" fill="none" stroke="#CC7A4D" stroke-width="1.4"></circle><circle cx="200.00" cy="269.28" r="40" fill="none" stroke="#CC7A4D" stroke-width="1.4"></circle><circle cx="220.00" cy="303.92" r="40" fill="none" stroke="#CC7A4D" stroke-width="1.4"></circle><circle cx="240.00" cy="338.56" r="40" fill="none" stroke="#CC7A4D" stroke-width="1.4"></circle><circle cx="120.00" cy="61.44" r="40" fill="none" stroke="#CC7A4D" stroke-width="1.4"></circle><circle cx="140.00" cy="96.08" r="40" fill="none" stroke="#CC7A4D" stroke-width="1.4"></circle><circle cx="160.00" cy="130.72" r="40" fill="none" stroke="#CC7A4D" stroke-width="1.4"></circle><circle cx="180.00" cy="165.36" r="40" fill="none" stroke="#CC7A4D" stroke-width="1.4"></circle><circle cx="200.00" cy="200.00" r="40" fill="none" stroke="#CC7A4D" stroke-width="1.4"></circle><circle cx="220.00" cy="234.64" r="40" fill="none" stroke="#CC7A4D" stroke-width="1.4"></circle><circle cx="240.00" cy="269.28" r="40" fill="none" stroke="#CC7A4D" stroke-width="1.4"></circle><circle cx="260.00" cy="303.92" r="40" fill="none" stroke="#CC7A4D" stroke-width="1.4"></circle><circle cx="280.00" cy="338.56" r="40" fill="none" stroke="#CC7A4D" stroke-width="1.4"></circle><circle cx="160.00" cy="61.44" r="40" fill="none" stroke="#CC7A4D" stroke-width="1.4"></circle><circle cx="180.00" cy="96.08" r="40" fill="none" stroke="#CC7A4D" stroke-width="1.4"></circle><circle cx="200.00" cy="130.72" r="40" fill="none" stroke="#CC7A4D" stroke-width="1.4"></circle><circle cx="220.00" cy="165.36" r="40" fill="none" stroke="#CC7A4D" stroke-width="1.4"></circle><circle cx="240.00" cy="200.00" r="40" fill="none" stroke="#CC7A4D" stroke-width="1.4"></circle><circle cx="260.00" cy="234.64" r="40" fill="none" stroke="#CC7A4D" stroke-width="1.4"></circle><circle cx="280.00" cy="269.28" r="40" fill="none" stroke="#CC7A4D" stroke-width="1.4"></circle><circle cx="300.00" cy="303.92" r="40" fill="none" stroke="#CC7A4D" stroke-width="1.4"></circle><circle cx="200.00" cy="61.44" r="40" fill="none" stroke="#CC7A4D" stroke-width="1.4"></circle><circle cx="220.00" cy="96.08" r="40" fill="none" stroke="#CC7A4D" stroke-width="1.4"></circle><circle cx="240.00" cy="130.72" r="40" fill="none" stroke="#CC7A4D" stroke-width="1.4"></circle><circle cx="260.00" cy="165.36" r="40" fill="none" stroke="#CC7A4D" stroke-width="1.4"></circle><circle cx="280.00" cy="200.00" r="40" fill="none" stroke="#CC7A4D" stroke-width="1.4"></circle><circle cx="300.00" cy="234.64" r="40" fill="none" stroke="#CC7A4D" stroke-width="1.4"></circle><circle cx="320.00" cy="269.28" r="40" fill="none" stroke="#CC7A4D" stroke-width="1.4"></circle><circle cx="240.00" cy="61.44" r="40" fill="none" stroke="#CC7A4D" stroke-width="1.4"></circle><circle cx="260.00" cy="96.08" r="40" fill="none" stroke="#CC7A4D" stroke-width="1.4"></circle><circle cx="280.00" cy="130.72" r="40" fill="none" stroke="#CC7A4D" stroke-width="1.4"></circle><circle cx="300.00" cy="165.36" r="40" fill="none" stroke="#CC7A4D" stroke-width="1.4"></circle><circle cx="320.00" cy="200.00" r="40" fill="none" stroke="#CC7A4D" stroke-width="1.4"></circle><circle cx="340.00" cy="234.64" r="40" fill="none" stroke="#CC7A4D" stroke-width="1.4"></circle><circle cx="280.00" cy="61.44" r="40" fill="none" stroke="#CC7A4D" stroke-width="1.4"></circle><circle cx="300.00" cy="96.08" r="40" fill="none" stroke="#CC7A4D" stroke-width="1.4"></circle><circle cx="320.00" cy="130.72" r="40" fill="none" stroke="#CC7A4D" stroke-width="1.4"></circle><circle cx="340.00" cy="165.36" r="40" fill="none" stroke="#CC7A4D" stroke-width="1.4"></circle><circle cx="360.00" cy="200.00" r="40" fill="none" stroke="#CC7A4D" stroke-width="1.4"></circle></g>
</svg>