<svg xmlns="http://www.w3.org/2000/svg" width="400" height="400" viewBox="0 0 400 400" role="img" aria-label="Fenice — grafismo flor da vida">
  <defs><clipPath id="fcC"><circle cx="200" cy="200" r="177.50"></circle></clipPath></defs>
  <g clip-path="url(#fcC)"><circle cx="50.00" cy="200.00" r="50" fill="none" stroke="#B23A2E" stroke-width="1.6"></circle><circle cx="75.00" cy="243.30" r="50" fill="none" stroke="#B23A2E" stroke-width="1.6"></circle><circle cx="100.00" cy="286.60" r="50" fill="none" stroke="#B23A2E" stroke-width="1.6"></circle><circle cx="125.00" cy="329.90" r="50" fill="none" stroke="#B23A2E" stroke-width="1.6"></circle><circle cx="75.00" cy="156.70" r="50" fill="none" stroke="#B23A2E" stroke-width="1.6"></circle><circle cx="100.00" cy="200.00" r="50" fill="none" stroke="#B23A2E" stroke-width="1.6"></circle><circle cx="125.00" cy="243.30" r="50" fill="none" stroke="#B23A2E" stroke-width="1.6"></circle><circle cx="150.00" cy="286.60" r="50" fill="none" stroke="#B23A2E" stroke-width="1.6"></circle><circle cx="175.00" cy="329.90" r="50" fill="none" stroke="#B23A2E" stroke-width="1.6"></circle><circle cx="100.00" cy="113.40" r="50" fill="none" stroke="#B23A2E" stroke-width="1.6"></circle><circle cx="125.00" cy="156.70" r="50" fill="none" stroke="#B23A2E" stroke-width="1.6"></circle><circle cx="150.00" cy="200.00" r="50" fill="none" stroke="#B23A2E" stroke-width="1.6"></circle><circle cx="175.00" cy="243.30" r="50" fill="none" stroke="#B23A2E" stroke-width="1.6"></circle><circle cx="200.00" cy="286.60" r="50" fill="none" stroke="#B23A2E" stroke-width="1.6"></circle><circle cx="225.00" cy="329.90" r="50" fill="none" stroke="#B23A2E" stroke-width="1.6"></circle><circle cx="125.00" cy="70.10" r="50" fill="none" stroke="#B23A2E" stroke-width="1.6"></circle><circle cx="150.00" cy="113.40" r="50" fill="none" stroke="#B23A2E" stroke-width="1.6"></circle><circle cx="175.00" cy="156.70" r="50" fill="none" stroke="#B23A2E" stroke-width="1.6"></circle><circle cx="200.00" cy="200.00" r="50" fill="none" stroke="#B23A2E" stroke-width="1.6"></circle><circle cx="225.00" cy="243.30" r="50" fill="none" stroke="#B23A2E" stroke-width="1.6"></circle><circle cx="250.00" cy="286.60" r="50" fill="none" stroke="#B23A2E" stroke-width="1.6"></circle><circle cx="275.00" cy="329.90" r="50" fill="none" stroke="#B23A2E" stroke-width="1.6"></circle><circle cx="175.00" cy="70.10" r="50" fill="none" stroke="#B23A2E" stroke-width="1.6"></circle><circle cx="200.00" cy="113.40" r="50" fill="none" stroke="#B23A2E" stroke-width="1.6"></circle><circle cx="225.00" cy="156.70" r="50" fill="none" stroke="#B23A2E" stroke-width="1.6"></circle><circle cx="250.00" cy="200.00" r="50" fill="none" stroke="#B23A2E" stroke-width="1.6"></circle><circle cx="275.00" cy="243.30" r="50" fill="none" stroke="#B23A2E" stroke-width="1.6"></circle><circle cx="300.00" cy="286.60" r="50" fill="none" stroke="#B23A2E" stroke-width="1.6"></circle><circle cx="225.00" cy="70.10" r="50" fill="none" stroke="#B23A2E" stroke-width="1.6"></circle><circle cx="250.00" cy="113.40" r="50" fill="none" stroke="#B23A2E" stroke-width="1.6"></circle><circle cx="275.00" cy="156.70" r="50" fill="none" stroke="#B23A2E" stroke-width="1.6"></circle><circle cx="300.00" cy="200.00" r="50" fill="none" stroke="#B23A2E" stroke-width="1.6"></circle><circle cx="325.00" cy="243.30" r="50" fill="none" stroke="#B23A2E" stroke-width="1.6"></circle><circle cx="275.00" cy="70.10" r="50" fill="none" stroke="#B23A2E" stroke-width="1.6"></circle><circle cx="300.00" cy="113.40" r="50" fill="none" stroke="#B23A2E" stroke-width="1.6"></circle><circle cx="325.00" cy="156.70" r="50" fill="none" stroke="#B23A2E" stroke-width="1.6"></circle><circle cx="350.00" cy="200.00" r="50" fill="none" stroke="#B23A2E" stroke-width="1.6"></circle></g>
</svg>